<svg width="12" height="393" viewBox="0 0 12 393" fill="none" xmlns="http://www.w3.org/2000/svg">
<path d="M5.75165 0.666667C2.80613 0.666667 0.418314 3.05448 0.418314 6C0.418315 8.94552 2.80613 11.3333 5.75165 11.3333C8.69717 11.3333 11.085 8.94552 11.085 6C11.085 3.05448 8.69717 0.666666 5.75165 0.666667ZM5.75166 381.667C2.80615 381.667 0.418331 384.054 0.418331 387C0.418332 389.946 2.80615 392.333 5.75167 392.333C8.69718 392.333 11.085 389.946 11.085 387C11.085 384.054 8.69718 381.667 5.75166 381.667ZM4.75165 6L4.75166 387L6.75166 387L6.75165 6L4.75165 6Z" fill="black"/>
</svg>
